<svg width="20" height="20" viewBox="0 0 20 20" fill="none" xmlns="http://www.w3.org/2000/svg">
<path d="M0.833252 11.5475V8.45249C0.833252 8.01046 1.00885 7.58654 1.32141 7.27398C1.63397 6.96142 2.05789 6.78582 2.49992 6.78582H4.91659C5.07952 6.78578 5.23887 6.73798 5.37492 6.64832L10.3749 3.35166C10.5005 3.26892 10.6462 3.22174 10.7965 3.21511C10.9468 3.20847 11.096 3.24264 11.2285 3.31398C11.3609 3.38532 11.4716 3.49117 11.5487 3.62032C11.6258 3.74946 11.6666 3.89707 11.6666 4.04749V15.9525C11.6666 16.1029 11.6258 16.2505 11.5487 16.3797C11.4716 16.5088 11.3609 16.6147 11.2285 16.686C11.096 16.7573 10.9468 16.7915 10.7965 16.7849C10.6462 16.7782 10.5005 16.7311 10.3749 16.6483L5.37492 13.3517C5.23887 13.262 5.07952 13.2142 4.91659 13.2142H2.49992C2.05789 13.2142 1.63397 13.0386 1.32141 12.726C1.00885 12.4134 0.833252 11.9895 0.833252 11.5475Z" fill="black" stroke="black" stroke-width="1.25"/>
<path d="M14.5833 6.25C14.5833 6.25 15.8333 7.5 15.8333 9.58333C15.8333 11.6667 14.5833 12.9167 14.5833 12.9167M17.0833 3.75C17.0833 3.75 19.1666 5.83333 19.1666 9.58333C19.1666 13.3333 17.0833 15.4167 17.0833 15.4167" stroke="black" stroke-width="1.25" stroke-linecap="round" stroke-linejoin="round"/>
</svg>
