<svg width="32" height="32" viewBox="0 0 32 32" fill="none" xmlns="http://www.w3.org/2000/svg">
<circle cx="16" cy="16" r="16" fill="white"/>
<path d="M15.8264 10.3968L8.54284 15.6078C8.47788 15.6543 8.42493 15.7156 8.38838 15.7867C8.35183 15.8577 8.33272 15.9365 8.33264 16.0164V16.0176C8.33281 16.0978 8.35211 16.1768 8.38895 16.248C8.42579 16.3192 8.4791 16.3807 8.54444 16.4272L15.828 21.6046C15.9033 21.6581 15.9919 21.6898 16.0841 21.6963C16.1763 21.7027 16.2684 21.6837 16.3504 21.6412C16.4326 21.5989 16.5015 21.5348 16.5495 21.4559C16.5975 21.377 16.6228 21.2863 16.6226 21.194V18.7574L23.1644 18.7576C23.2305 18.7576 23.296 18.7446 23.357 18.7193C23.4181 18.694 23.4735 18.657 23.5202 18.6102C23.567 18.5635 23.604 18.508 23.6293 18.4469C23.6545 18.3859 23.6675 18.3204 23.6674 18.2544L23.6672 13.7462C23.6673 13.6801 23.6543 13.6146 23.629 13.5535C23.6037 13.4924 23.5666 13.437 23.5198 13.3902C23.4731 13.3435 23.4176 13.3064 23.3565 13.2812C23.2954 13.2559 23.2299 13.2429 23.1638 13.243L16.6228 13.243V10.8056C16.6228 10.6176 16.5168 10.445 16.3494 10.3582C16.2672 10.3158 16.1748 10.297 16.0825 10.3038C15.9902 10.3107 15.9016 10.3428 15.8264 10.3968Z" fill="url(#paint0_linear_1_809)"/>
<defs>
<linearGradient id="paint0_linear_1_809" x1="16" y1="21.6975" x2="16" y2="10.3025" gradientUnits="userSpaceOnUse">
<stop stop-color="#FD0880"/>
<stop offset="1" stop-color="#FF6A00"/>
</linearGradient>
</defs>
</svg>
